<svg width="50" height="50" xmlns="http://www.w3.org/2000/svg" fill="#000000">

 <g>
  <title>Layer 1</title>
  <path fill="#9ACEE6" id="svg_1" d="m13.83333,4.33333c-5.51133,0 -10,4.48867 -10,10l0,22c0,5.51133 4.48867,10 10,10l22,0c5.51133,0 10,-4.48867 10,-10l0,-22c0,-5.51133 -4.48867,-10 -10,-10l-22,0zm3.5,9c2.97,0 5.54023,1.73023 6.74023,4.24023c-3.35,0.79 -5.94984,3.50063 -6.58984,6.89063c-1.72,0.34 -3.22047,1.3082 -4.23047,2.6582c-2.06,-1.34 -3.41992,-3.65906 -3.41992,-6.28906c0,-4.14 3.36,-7.5 7.5,-7.5zm8.75,6c2.784,0 5.17208,1.6858 6.20508,4.0918c0.341,-0.056 0.68792,-0.0918 1.04492,-0.0918c3.59,0 6.5,2.91 6.5,6.5c0,3.59 -2.91,6.5 -6.5,6.5c-0.169,0 -0.334,-0.01339 -0.5,-0.02539l0,0.02539l-14,0c-2.761,0 -5,-2.239 -5,-5c0,-2.761 2.239,-5 5,-5c0.177,0 0.34463,0.03473 0.51563,0.05273c-0.00401,-0.101 -0.01563,-0.20073 -0.01563,-0.30273c0,-3.728 3.022,-6.75 6.75,-6.75z"/>
 </g>
</svg>